<svg xmlns="http://www.w3.org/2000/svg" width="375" viewBox="0 0 375 375" height="375" version="1.0"><defs><clipPath id="a"><path d="M 112.5 140 L 262.5 140 L 262.5 235 L 112.5 235 Z M 112.5 140"/></clipPath></defs><path stroke-linecap="round" transform="matrix(6.94444 0 0 6.9308 104.167 104.583)" fill="none" stroke-linejoin="round" d="M 6.430126 12.000163 L 6.430126 9.488728 L 8.937752 9.488728" stroke="#000"/><path stroke-linecap="round" transform="matrix(6.94444 0 0 6.9308 104.167 104.583)" fill="none" stroke-linejoin="round" d="M 8.937752 12.000163 L 8.937752 14.511033 L 6.430126 14.511033 L 6.430126 12.000163" stroke="#000"/><path stroke-linecap="round" transform="matrix(6.94444 0 0 6.9308 104.167 104.583)" fill="none" stroke-linejoin="round" d="M 7.929189 12.000163 L 8.937752 12.000163" stroke="#000"/><path stroke-linecap="round" transform="matrix(6.94444 0 0 6.9308 104.167 104.583)" fill="none" stroke-linejoin="round" d="M 12.011252 9.488728 L 12.011252 14.511033" stroke="#000"/><path stroke-linecap="round" transform="matrix(6.94444 0 0 6.9308 104.167 104.583)" fill="none" stroke-linejoin="round" d="M 17.569877 12.000163 L 15.067877 12.000163 L 15.067877 9.488728 L 17.569877 9.488728" stroke="#000"/><path stroke-linecap="round" transform="matrix(6.94444 0 0 6.9308 104.167 104.583)" fill="none" stroke-linejoin="round" d="M 15.067877 14.511033 L 15.067877 12.000163 L 17.569877 12.000163" stroke="#000"/><g clip-path="url(#a)"><path stroke-linecap="round" transform="matrix(6.94444 0 0 6.9308 104.167 104.583)" fill="none" stroke-linejoin="round" d="M 22.29994 16.634142 C 22.298815 16.7401 22.287565 16.844931 22.26619 16.948635 C 22.244815 17.052339 22.213315 17.152661 22.172253 17.250165 C 22.13119 17.348233 22.08169 17.440664 22.022628 17.528587 C 21.963565 17.61651 21.896628 17.698233 21.821815 17.772629 C 21.74644 17.847589 21.66544 17.914658 21.57769 17.973837 C 21.489378 18.033015 21.397128 18.083177 21.299253 18.12432 C 21.20194 18.1649 21.101253 18.196462 20.99719 18.217879 C 20.89369 18.239296 20.789065 18.250568 20.682753 18.252259 L 3.320063 18.252259 C 3.213751 18.251131 3.109126 18.239859 3.005063 18.218442 C 2.901563 18.197025 2.800313 18.166027 2.703001 18.124883 C 2.605126 18.08374 2.512313 18.034143 2.424001 17.974964 C 2.336251 17.915785 2.254688 17.848716 2.179313 17.773756 C 2.104501 17.698796 2.037563 17.617637 1.978501 17.529714 C 1.918876 17.441791 1.868813 17.348796 1.827751 17.251292 C 1.786688 17.153224 1.755188 17.052339 1.733813 16.948635 C 1.712438 16.844931 1.701188 16.7401 1.700063 16.634142 L 1.700063 7.367874 C 1.698938 7.261352 1.709063 7.155958 1.729313 7.051127 C 1.749563 6.946296 1.779376 6.844847 1.819876 6.746215 C 1.860376 6.647584 1.910438 6.554025 1.969501 6.464975 C 2.028563 6.376489 2.095501 6.294202 2.170876 6.218679 C 2.246251 6.143719 2.328376 6.076086 2.417251 6.017471 C 2.505563 5.958292 2.599501 5.908695 2.697938 5.868115 C 2.796938 5.827535 2.898188 5.797101 3.003376 5.777374 C 3.108001 5.757084 3.213188 5.746939 3.320063 5.748067 L 20.67994 5.748067 C 20.786815 5.746939 20.892003 5.757084 20.996628 5.777374 C 21.101815 5.797101 21.203065 5.827535 21.302065 5.868115 C 21.400503 5.908695 21.493878 5.958292 21.582753 6.017471 C 21.671628 6.076086 21.753753 6.143719 21.829128 6.218679 C 21.904503 6.294202 21.97144 6.376489 22.030503 6.464975 C 22.089565 6.554025 22.139628 6.647584 22.180128 6.746215 C 22.220628 6.844847 22.25044 6.946296 22.27069 7.051127 C 22.29094 7.155958 22.301065 7.261352 22.29994 7.367874 Z M 22.29994 16.634142" stroke="#000"/></g></svg>